<svg width="251" height="78" viewBox="0 0 251 78" fill="none" xmlns="http://www.w3.org/2000/svg">
<rect x="0.5" y="0.5" width="249.7" height="76.9218" rx="7.5" fill="#F5F8FA"/>
<path d="M38.3093 34.1311L40.9164 44.1542C41.486 46.345 42.0118 48.3935 42.3843 50.431H42.5048C42.9539 48.4373 43.6002 46.3231 44.2574 44.1542L47.4779 34.1311H50.4903L53.5466 43.9899C54.2805 46.356 54.8501 48.4373 55.2992 50.431H55.4526C55.833 48.2722 56.334 46.1364 56.9533 44.0337L59.7686 34.1749H63.3177L56.9533 53.8925H53.6671L50.6547 44.4828C49.9645 42.292 49.3949 40.3312 48.902 38.0089H48.8801C48.3861 40.2002 47.768 42.3617 47.0288 44.4828L43.8521 53.8596H40.5659L34.6396 34.1311H38.3093Z" fill="#47585B"/>
<path d="M84.3389 43.8364C84.3389 51.1319 79.289 54.3086 74.4801 54.3086C69.1344 54.3086 65.0156 50.398 65.0156 44.1541C65.0156 37.5816 69.3426 33.6819 74.7978 33.6819C80.5049 33.6819 84.3389 37.8007 84.3389 43.8364ZM68.6853 44.0336C68.6853 48.3605 71.1719 51.6139 74.6773 51.6139C78.1826 51.6139 80.6692 48.3934 80.6692 43.946C80.6692 40.6049 79.0042 36.3657 74.7649 36.3657C70.5256 36.3657 68.6853 40.2873 68.6853 44.0336Z" fill="#47585B"/>
<path d="M88.8743 40.2873C88.8743 37.965 88.8743 35.9056 88.71 34.131H91.8539L91.9744 37.9978H92.1387C92.4782 36.7918 93.1912 35.7245 94.1752 34.949C95.1593 34.1736 96.3638 33.73 97.6158 33.6819C97.9591 33.6781 98.3015 33.7186 98.6345 33.8024V37.1872C98.2348 37.1031 97.8271 37.0627 97.4186 37.0667C94.8882 37.0667 93.0917 38.9837 92.6097 41.6675C92.4957 42.2339 92.4334 42.8096 92.4235 43.3873V53.9033H88.8743V40.2873Z" fill="#47585B"/>
<path d="M102.381 24.9185H105.963V53.8594H102.381V24.9185Z" fill="#47585B"/>
<path d="M129.033 24.9185V48.7657C129.033 50.5184 129.033 52.512 129.197 53.8594H125.976L125.823 50.4307H125.735C125.096 51.6542 124.122 52.6712 122.928 53.3634C121.733 54.0557 120.367 54.3948 118.988 54.3414C114.222 54.3414 110.553 50.3102 110.553 44.3183C110.553 37.7458 114.584 33.7146 119.393 33.7146C120.565 33.6386 121.735 33.878 122.783 34.4077C123.831 34.9375 124.718 35.7384 125.352 36.727H125.429V24.9185H129.033ZM125.45 42.1603C125.455 41.6517 125.4 41.1443 125.286 40.6486C125.029 39.4636 124.371 38.4034 123.423 37.6471C122.475 36.8908 121.296 36.4846 120.083 36.497C116.369 36.497 114.168 39.7833 114.168 44.1649C114.168 48.1523 116.128 51.4604 119.995 51.4604C121.23 51.4566 122.425 51.0292 123.382 50.2496C124.339 49.47 125 48.3854 125.253 47.1773C125.387 46.6549 125.453 46.1174 125.45 45.578V42.1603Z" fill="#47585B"/>
<path d="M139.318 29.3989V34.1311H144.456V36.8149H139.318V47.4514C139.318 49.9051 140.02 51.2854 142.013 51.2854C142.715 51.3141 143.418 51.2328 144.095 51.0444L144.259 53.7282C143.239 54.1047 142.158 54.2868 141.071 54.2649C140.352 54.3016 139.634 54.1814 138.967 53.9128C138.299 53.6442 137.697 53.2336 137.204 52.7094C136.186 51.614 135.813 49.9051 135.813 47.5829V36.8149H132.757V34.1311H135.813V30.5053L139.318 29.3989Z" fill="#FFBA08"/>
<path d="M148.498 40.2873C148.498 37.965 148.498 35.9056 148.334 34.131H151.478L151.598 37.9978H151.762C152.102 36.7918 152.815 35.7245 153.799 34.949C154.783 34.1736 155.988 33.73 157.24 33.6819C157.583 33.6781 157.925 33.7186 158.258 33.8024V37.1872C157.859 37.1031 157.451 37.0627 157.042 37.0667C154.512 37.0667 152.661 38.9837 152.233 41.6675C152.129 42.2202 152.074 42.7811 152.069 43.3435V53.8595H148.52L148.498 40.2873Z" fill="#FFBA08"/>
<path d="M165.992 28.5881C165.992 29.1778 165.758 29.7434 165.341 30.1605C164.924 30.5775 164.358 30.8118 163.768 30.8118C163.179 30.8118 162.613 30.5775 162.196 30.1605C161.779 29.7434 161.545 29.1778 161.545 28.5881C161.537 28.2911 161.59 27.9957 161.7 27.7199C161.81 27.444 161.975 27.1935 162.186 26.9834C162.396 26.7734 162.646 26.6083 162.922 26.4981C163.198 26.3879 163.493 26.3349 163.79 26.3425C164.083 26.3409 164.374 26.3983 164.645 26.5111C164.916 26.624 165.161 26.79 165.366 26.9994C165.572 27.2089 165.733 27.4574 165.84 27.7303C165.948 28.0032 165.999 28.2949 165.992 28.5881ZM161.994 53.8594V34.1419H165.587V53.8594H161.994Z" fill="#FFBA08"/>
<path d="M171.568 40.5722C171.568 38.0418 171.48 36.0043 171.403 34.1311H174.624L174.777 37.516H174.854C175.564 36.3 176.591 35.3005 177.827 34.625C179.062 33.9495 180.458 33.6235 181.865 33.682C186.63 33.682 190.223 37.7131 190.223 43.7051C190.223 50.8034 185.841 54.3088 181.251 54.3088C180.058 54.3614 178.871 54.1034 177.808 53.56C176.744 53.0166 175.839 52.2065 175.183 51.2087H175.095V61.9219H171.568V40.5722ZM175.106 45.8302C175.118 46.3233 175.173 46.8144 175.27 47.2981C175.571 48.4969 176.263 49.561 177.238 50.3211C178.212 51.0813 179.413 51.494 180.649 51.4935C184.439 51.4935 186.641 48.3935 186.641 43.8256C186.641 39.8711 184.559 36.4972 180.769 36.4972C179.503 36.5331 178.285 36.9881 177.306 37.7911C176.326 38.594 175.641 39.6993 175.358 40.9337C175.207 41.4092 175.123 41.9031 175.106 42.4015V45.8302Z" fill="#FFBA08"/>
<path d="M33.5446 51.2197C134.871 60.6403 194.462 34.1311 194.462 34.1311C194.462 34.1311 152.562 63.9156 32 58.1427" fill="#F5F8FA"/>
<path d="M135.857 48.8644C172.674 43.223 192.819 34.2405 192.819 34.2405C192.819 34.2405 172.006 48.481 137.391 53.0051" stroke="#FFBA08" stroke-miterlimit="10"/>
<path d="M40.0293 51.9865C71.9866 54.5919 104.137 53.5445 135.857 48.8645" stroke="#47585B" stroke-miterlimit="10"/>
<path d="M209.316 38.4908C208.746 34.9197 208.221 31.5458 207.662 28.0295L206.764 28.7635C204.763 30.5276 202.463 31.9189 199.972 32.8713C199.58 33.0431 199.152 33.115 198.726 33.0805C198.299 33.0461 197.888 32.9065 197.529 32.6741C195.985 31.6882 194.385 30.7681 192.797 29.826C193.035 29.4781 193.368 29.2063 193.757 29.0431C194.145 28.8799 194.573 28.8322 194.988 28.9059C196.239 29.0392 197.498 29.1014 198.756 29.0921C199.151 29.0859 199.534 28.9556 199.852 28.7196C204.233 24.9952 208.615 21.2562 212.997 17.5026C214.135 16.5003 215.61 15.9644 217.126 16.0018C218.485 16.0018 219.054 16.9001 218.474 18.1927C218.153 18.8407 217.71 19.4209 217.17 19.9015C215.888 21.0736 214.552 22.18 213.216 23.2864C213.042 23.4139 212.899 23.5783 212.797 23.7677C212.695 23.9571 212.636 24.1669 212.624 24.3818C212.339 28.0843 211.989 31.7868 211.704 35.4893C211.701 35.8643 211.607 36.233 211.43 36.5633C211.252 36.8936 210.997 37.1755 210.685 37.3844C210.21 37.7291 209.753 38.0984 209.316 38.4908Z" fill="#47585B"/>
<path d="M197.244 22.9249C198.263 22.0486 198.975 20.9094 200.618 21.1613C202.261 21.4132 203.905 21.4242 205.635 21.5447L206.194 21.6214C204.945 22.7168 203.806 23.6369 202.656 24.59C202.59 24.6376 202.515 24.671 202.436 24.6879C202.357 24.7049 202.275 24.7051 202.196 24.6885C200.662 24.2066 199.128 23.7136 197.606 23.2097C197.496 23.1769 197.42 23.0673 197.244 22.9249Z" fill="#47585B"/>
<rect x="0.5" y="0.5" width="249.7" height="76.9218" rx="7.5" stroke="#47585B"/>
</svg>
